<?xml version="1.0" encoding="utf-8"?>
<!-- Generator: Adobe Illustrator 18.0.0, SVG Export Plug-In . SVG Version: 6.00 Build 0)  -->
<!DOCTYPE svg PUBLIC "-//W3C//DTD SVG 1.1//EN" "http://www.w3.org/Graphics/SVG/1.1/DTD/svg11.dtd">
<svg version="1.1" id="Layer_1" xmlns="http://www.w3.org/2000/svg" xmlns:xlink="http://www.w3.org/1999/xlink" x="0px" y="0px"
	 viewBox="0 0 50 50" enable-background="new 0 0 50 50" xml:space="preserve">
<g>
	<path fill="#5698C8" d="M50,25.1c0,6.6,0,13.1,0,19.7c0,1.5-0.4,2.7-1.4,3.7c-0.9,0.9-2,1.4-3.3,1.5c-0.3,0-0.6,0-1,0
		c-12.9,0-25.7,0-38.6,0c-0.7,0-1.4,0-2-0.2c-2.1-0.5-3.6-2.5-3.7-4.7c0-0.2,0-0.5,0-0.7C0,31.5,0,18.6,0,5.6c0-1.1,0.2-2.1,0.7-3.1
		C1.6,0.9,3.1,0.2,5,0c0.2,0,0.4,0,0.5,0c13,0,26.1,0,39.1,0c1.7,0,3.1,0.6,4.2,1.8c0.7,0.8,1.1,1.7,1.2,2.8c0,0.5,0,0.9,0,1.4
		C50,12.3,50,18.7,50,25.1z M13.8,22.9c-0.7,2.7-1.3,5.3-1.9,8c-0.2,0.9-0.4,1.8-0.3,2.7c0.1,1.9,0.9,3.2,3,3.7
		c1.9,0.5,3.6-0.1,5-1.3c0.4-0.4,0.8-0.8,1.3-1.3c-0.2,0.7-0.3,1.1-0.4,1.6c-0.1,0.6,0,0.8,0.6,0.8c1.1,0,2.2,0,3.3,0
		c0.7,0,0.9,0,1.1-0.8c0.7-2.8,1.4-5.5,2.1-8.3c0.3-1.3,0.6-2.5,1.2-3.7c0.6-1,1.4-1.6,2.5-1.7c1.4-0.3,2.5,0.7,2.5,2.1
		c0,0.7-0.1,1.5-0.2,2.2c-0.2,0.9-0.5,1.7-0.7,2.6c-0.3,1.3-0.8,2.5-0.8,3.9c0,3.4,2.7,4.5,5,4.1c2.8-0.4,4.1-2.7,4.8-5.1
		c0.1-0.3,0-0.6-0.3-0.7c-0.5-0.2-1-0.4-1.5-0.6c-0.3,0.6-0.5,1.1-0.8,1.5c-0.2,0.4-0.5,0.9-0.9,1.2c-0.2,0.2-0.7,0.2-1,0.1
		c-0.2-0.1-0.4-0.5-0.4-0.8c0-0.4,0-0.9,0.1-1.4c0.5-1.8,1-3.6,1.4-5.4c0.4-1.5,0.4-3,0-4.6c-0.8-2.9-4.1-4-6.1-3.1
		c-1,0.4-1.9,0.9-2.6,1.6c-0.5,0.5-1,1-1.5,1.6c0.2-1,0.4-2,0.6-2.9c-0.1-0.1-0.1-0.2-0.2-0.2c-2.2,0-4.4-0.1-6.7-0.1
		c-0.2,0-0.5,0.2-0.5,0.4c-0.4,1.2-0.7,2.3-0.9,3.7c1.1,0,2.1,0.1,3.2,0.1c-0.7,2.7-1.3,5.2-2,7.7c-0.2,0.9-0.8,1.6-1.4,2.2
		c-0.9,0.8-1.9,1.3-3.1,1.2c-0.7,0-0.9-0.2-0.9-1c0-0.6,0.1-1.1,0.2-1.7c0.6-2.5,1.2-5.1,1.9-7.6c0.4-1.4,0.7-2.8,1.1-4.2
		c0.2-0.7,0-0.8-0.7-0.8c-0.5,0-1.1,0-1.6,0c-1.7,0-3.3,0-5,0c-0.3,0-0.7-0.1-0.8,0.3c-0.3,1.2-0.6,2.4-1,3.6
		C11.8,23,12.7,22.8,13.8,22.9z M17.8,10.7c-1.5-0.2-3,1.3-3,2.9c-0.1,1.5,1.4,2.9,2.9,2.9c1.6,0,3-1.3,3-2.9
		C20.8,12,19.5,10.7,17.8,10.7z"/>
</g>
</svg>
