<?xml version="1.0" encoding="utf-8"?>
<!-- Generator: Adobe Illustrator 18.0.0, SVG Export Plug-In . SVG Version: 6.00 Build 0)  -->
<!DOCTYPE svg PUBLIC "-//W3C//DTD SVG 1.1//EN" "http://www.w3.org/Graphics/SVG/1.1/DTD/svg11.dtd">
<svg version="1.1" id="Layer_1" xmlns="http://www.w3.org/2000/svg" xmlns:xlink="http://www.w3.org/1999/xlink" x="0px" y="0px"
	 viewBox="0 0 50 50" enable-background="new 0 0 50 50" xml:space="preserve">
<g id="Mark_2_" transform="translate(0.000000, 35.000000)">
	<path fill="#5698C8" d="M43.8-35H6.2C2.8-35,0-32.2,0-28.8V8.8C0,12.2,2.8,15,6.2,15h37.5c3.5,0,6.2-2.8,6.2-6.2v-37.5
		C50-32.2,47.2-35,43.8-35z M21.8,2.9c0,1.7-1.3,3-3,3H9.5c-1.7,0-3-1.3-3-3v-28.4c0-1.7,1.3-3,3-3h9.2c1.7,0,3,1.3,3,3V2.9z
		 M43.5-9.6c0,1.7-1.3,3-3,3h-9.2c-1.7,0-3-1.3-3-3v-15.9c0-1.7,1.3-3,3-3h9.2c1.7,0,3,1.3,3,3V-9.6z"/>
</g>
</svg>
