<svg xmlns="http://www.w3.org/2000/svg" viewBox="0 0 300 75" fill="#ffffff" enable-background="new 0 0 300 75"><path d="M32.5 14.9c0 2.2-1.8 4-4 4h-6.4c-2.2 0-4-1.8-4-4s1.8-4 4-4h6.4c2.3 0 4 1.8 4 4zM30.1 25.9c0 2.2-1.8 4-4 4h-3c-2.2 0-4-1.8-4-4s1.8-4 4-4h3c2.2 0 4 1.8 4 4zM23.2 37c0 2.2-1.8 4-4 4s-4-1.8-4-4 1.8-4 4-4 4 1.8 4 4zM17.9 25.9c0 2.2-1.8 4-4 4s-4-1.8-4-4 1.8-4 4-4 4 1.8 4 4zM13.4 37c0 2.2-1.8 4-4 4H4c-2.2 0-4-1.8-4-4s1.8-4 4-4h5.4c2.2 0 4 1.8 4 4zM35.3 3.8c0 2.2-1.8 4-4 4h-.1c-2.2 0-4-1.8-4-4s1.8-4 4-4h.1c2.3 0 4 1.8 4 4zM47.8 37c0 2.2-1.8 4-4 4s-4-1.8-4-4 1.8-4 4-4 4 1.8 4 4zM21.1 70.2c0 2.2-1.8 4-4 4H17c-2.2 0-4-1.8-4-4s1.8-4 4-4h.1c2.2 0 4 1.8 4 4zM38.5 48.1c0 2.2-1.8 4-4 4h-12c-2.2 0-4-1.8-4-4s1.8-4 4-4h12c2.2 0 4 1.8 4 4zM24.7 37c0-2.2 1.8-4 4-4h5.4c2.2 0 4 1.8 4 4s-1.8 4-4 4h-5.4c-2.2 0-4-1.8-4-4zM30.2 59.1c0 2.2-1.8 4-4 4h-6.4c-2.2 0-4-1.8-4-4s1.8-4 4-4h6.4c2.2 0 4 1.8 4 4zM160 50.5v16.8h-11.9V42.8c0-4.8-3.9-8.8-8.8-8.8s-8.8 3.9-8.8 8.8v24.5h-11.9v-56l11.9-5.9v21.9c.6-.4.9-.8 1.3-1.1 1-.9 2.1-1.6 3.4-2.2.9-.5 1.9-.8 2.9-1.1 1-.3 2-.5 3-.5.7 0 1.3-.2 2-.2 1.4 0 2.8.1 4.2.3 1 .2 2 .4 3 .8 2.1.8 4 2 5.5 3.7 1.2 1.3 2.1 2.8 2.7 4.4.3.8.6 1.7.8 2.5.3 1 .4 2 .6 2.9.1.3 0 .5.1.8.1 4.3 0 8.6 0 12.9zM167.4 37.8V20.9h11.9v24.6c0 4.8 3.9 8.8 8.8 8.8s8.8-3.9 8.8-8.8V20.9h11.9v46.4h-9.9l-2-6.2c-.6.4-.9.8-1.3 1.1-1 .9-2.1 1.6-3.4 2.2-.9.5-1.9.8-2.9 1.1-1 .3-2 .5-3 .5-.7 0-1.3.2-2 .2-1.4 0-2.8-.1-4.2-.3-1-.2-2-.4-3-.8-2.1-.8-4-2-5.5-3.7-1.2-1.3-2.1-2.8-2.7-4.4-.3-.8-.6-1.7-.8-2.5-.3-1-.4-2-.6-2.9-.1-.3 0-.5-.1-.8-.1-4.3 0-8.7 0-13zM90.7 5.3H68.2v62h12.2V44.8h10.3c10.9 0 19.7-8.8 19.7-19.7S101.5 5.3 90.7 5.3zm0 27.3H80.4V17.5h10.3c4.2 0 7.5 3.4 7.5 7.5s-3.4 7.6-7.5 7.6zM234.8 67.3c-6.3 0-13.3-2.1-19.3-6.8l5.4-8.4c4.9 3.5 10 5.4 14.2 5.4 3.7 0 5.4-1.3 5.4-3.3V54c0-2.8-4.4-3.7-9.3-5.2-6.3-1.8-13.4-4.8-13.4-13.5v-.2c0-9.1 7.4-14.2 16.4-14.2 5.7 0 11.9 1.9 16.7 5.2l-4.9 8.8c-4.4-2.6-8.9-4.2-12.1-4.2-3.1 0-4.7 1.3-4.7 3.1v.2c0 2.5 4.3 3.7 9.1 5.4 6.3 2.1 13.6 5.1 13.6 13.3v.2c.1 9.9-7.4 14.4-17.1 14.4zM299.8 48.5h-31c1.2 5.7 5.2 8.7 10.9 8.7 4.2 0 7.3-1.3 10.8-4.6l7.2 6.4c-4.1 5.1-10.1 8.3-18.2 8.3-13.4 0-23.2-9.4-23.2-23v-.2c0-12.7 9-23.1 22-23.1 14.9 0 21.7 11.5 21.7 24.1v.2c0 1.3-.1 2-.2 3.2zm-21.5-17.3c-5.2 0-8.6 3.7-9.6 9.5h19c-.7-5.7-4-9.5-9.4-9.5z"/></svg>