<?xml version="1.0" encoding="utf-8"?>
<!-- Generator: Adobe Illustrator 18.1.1, SVG Export Plug-In . SVG Version: 6.00 Build 0)  -->
<!DOCTYPE svg PUBLIC "-//W3C//DTD SVG 1.1//EN" "http://www.w3.org/Graphics/SVG/1.1/DTD/svg11.dtd">
<svg version="1.1" id="Layer_1" xmlns="http://www.w3.org/2000/svg" xmlns:xlink="http://www.w3.org/1999/xlink" x="0px" y="0px"
	 viewBox="0 0 21.9 25" enable-background="new 0 0 21.9 25" xml:space="preserve">
<path d="M21.6,2.8c-0.2-0.2-0.4-0.4-0.6-0.6c-0.5-0.4-1-0.6-1.6-0.9c-1.2-0.5-2.5-0.8-3.8-1C14.1,0.1,12.5,0,10.9,0
	c-1.5,0-3,0.1-4.6,0.3C5.2,0.5,4.1,0.7,3.1,1.1C2.4,1.3,1.7,1.6,1.1,2C0.8,2.2,0.6,2.4,0.3,2.7C0.1,3-0.1,3.4,0,3.9
	c0.1,0.9,0.3,1.7,0.4,2.6C0.6,7.7,0.9,9,1.1,10.3c0.2,1.4,0.5,2.8,0.7,4.2c0.1,0.3,0.2,0.6,0.4,0.8c0.1,0.2,0.3,0.3,0.5,0.4
	c0.6,0.5,1.2,0.8,1.9,1.1c1.7,0.7,3.4,1,5.2,1c1.3,0.1,2.6,0,3.9-0.1c1.1-0.1,2.2-0.4,3.2-0.7c0.8-0.3,1.5-0.6,2.2-1.1
	c0.3-0.2,0.5-0.4,0.8-0.7c0.1-0.2,0.2-0.4,0.3-0.6c0.3-1.8,0.6-3.7,1-5.5c0.3-1.7,0.6-3.4,0.8-5.1C22,3.5,21.9,3.1,21.6,2.8
	L21.6,2.8z M10.9,15.5c-1.9,0-3.5-1.6-3.5-3.5c0-1.9,1.6-3.4,3.5-3.4c1.9,0,3.5,1.6,3.5,3.5C14.4,14,12.9,15.5,10.9,15.5L10.9,15.5z
	 M17.9,3.5c-0.1,0.1-0.2,0.2-0.4,0.3c-0.4,0.2-0.8,0.3-1.2,0.4c-0.8,0.2-1.5,0.3-2.3,0.4c-1,0.1-2,0.1-3,0.2c-1.2,0-2.3-0.1-3.5-0.2
	C6.7,4.4,5.9,4.3,5.1,4C4.8,3.9,4.6,3.8,4.4,3.7C4.2,3.7,4.1,3.6,4.1,3.5C3.9,3.3,3.9,3.1,4.1,3c0.1-0.1,0.2-0.2,0.3-0.3
	c0.3-0.2,0.7-0.3,1.1-0.4C6.3,2.1,7.1,2,7.9,1.9c1.3-0.1,2.6-0.2,4-0.1c1.2,0,2.4,0.1,3.6,0.3c0.6,0.1,1.1,0.2,1.7,0.4
	c0.2,0.1,0.4,0.2,0.5,0.3c0.1,0,0.2,0.1,0.2,0.2C18,3.2,18,3.3,17.9,3.5L17.9,3.5z M19.2,18c0,0.1,0,0.1,0,0.2
	c-0.2,1.3-0.5,2.5-0.7,3.8c-0.1,0.4-0.3,0.8-0.6,1.1c-0.3,0.3-0.7,0.6-1.2,0.8c-0.8,0.4-1.6,0.6-2.5,0.8c-1.1,0.2-2.2,0.3-2.8,0.3
	c-1.9,0-3.3-0.2-4.7-0.6c-0.6-0.2-1.3-0.4-1.8-0.8c-0.3-0.2-0.6-0.4-0.8-0.6c-0.3-0.3-0.5-0.7-0.6-1.1c-0.2-1.3-0.5-2.5-0.7-3.8
	c0-0.1,0-0.1,0-0.2c0-0.3,0.3-0.5,0.6-0.3c0,0,0.1,0,0.1,0c0.9,0.7,2,1.1,3.1,1.5c1,0.3,2,0.5,3.1,0.6c1.2,0.1,2.4,0.1,3.6-0.1
	c1.6-0.2,3.1-0.7,4.5-1.4c0.3-0.1,0.5-0.3,0.8-0.5c0,0,0.1-0.1,0.1-0.1C18.9,17.5,19.2,17.7,19.2,18L19.2,18z M12.7,12.1
	c0,1-0.8,1.7-1.8,1.7c-1,0-1.7-0.8-1.7-1.7c0-1,0.8-1.7,1.8-1.7C11.9,10.3,12.7,11.1,12.7,12.1L12.7,12.1z M12.7,12.1"/>
</svg>
