<?xml version="1.0" encoding="utf-8"?>
<!-- Generator: Adobe Illustrator 18.1.1, SVG Export Plug-In . SVG Version: 6.00 Build 0)  -->
<!DOCTYPE svg PUBLIC "-//W3C//DTD SVG 1.1//EN" "http://www.w3.org/Graphics/SVG/1.1/DTD/svg11.dtd">
<svg version="1.1" id="Layer_1" xmlns="http://www.w3.org/2000/svg" xmlns:xlink="http://www.w3.org/1999/xlink" x="0px" y="0px"
	 viewBox="0 0 20.8 20.8" enable-background="new 0 0 20.8 20.8" xml:space="preserve">
<path d="M6.1,17.3H4.5c-0.5,0-0.9-0.4-0.9-0.9V4.5C3.6,4,4,3.6,4.5,3.6h1.6c1,0,1.8-0.8,1.8-1.8c0-1-0.8-1.8-1.8-1.8H4.5
	C2,0,0,2,0,4.5v11.8c0,2.5,2,4.5,4.5,4.5h1.6c1,0,1.8-0.8,1.8-1.8C7.9,18.1,7.1,17.3,6.1,17.3z"/>
<path d="M20.3,9.5L14.8,4c-0.7-0.7-1.8-0.7-2.5,0c-0.7,0.7-0.7,1.8,0,2.5l2.5,2.5H7.1c-1,0-1.8,0.8-1.8,1.8c0,1,0.8,1.8,1.8,1.8h7.7
	l-2.3,2.3c-0.7,0.7-0.7,1.8,0,2.5c0.7,0.7,1.8,0.7,2.5,0l5.4-5.4c0.3-0.3,0.5-0.8,0.5-1.3C20.8,10.3,20.7,9.8,20.3,9.5z"/>
</svg>
