<?xml version="1.0" encoding="utf-8"?>
<!-- Generator: Adobe Illustrator 18.0.0, SVG Export Plug-In . SVG Version: 6.00 Build 0)  -->
<!DOCTYPE svg PUBLIC "-//W3C//DTD SVG 1.1//EN" "http://www.w3.org/Graphics/SVG/1.1/DTD/svg11.dtd">
<svg version="1.1" id="Layer_1" xmlns="http://www.w3.org/2000/svg" xmlns:xlink="http://www.w3.org/1999/xlink" x="0px" y="0px"
	 viewBox="0 0 50 50" enable-background="new 0 0 50 50" xml:space="preserve">
<g>
	<path fill="#5698C8" d="M48.2,25c0,1.1,0,2.2-0.2,3.3c-0.1,0.3,0.1,0.5,0.2,0.7c0.9,1.5,1.4,3.1,1.7,4.8c0.5,3.8-0.3,7.3-2.5,10.4
		c-2.2,3.1-5.3,5-9.1,5.6c-3.1,0.5-6,0.1-8.8-1.4C28.8,48,28.2,48,27.4,48c-3.7,0.4-7.3-0.1-10.8-1.4c-3.2-1.2-5.9-3-8.3-5.5
		C5.1,37.8,3,33.7,2.2,29.1c-0.3-1.7-0.4-3.4-0.3-5.1c0-0.7,0-1.3,0.2-2c0.1-0.3,0-0.6-0.2-0.9c-1.4-2.4-2-5-1.9-7.7
		c0.4-6.4,4.8-11.7,11.4-13c3.3-0.7,6.4-0.1,9.4,1.5C21.3,2,21.7,2.1,22.3,2c1.4-0.1,2.8-0.2,4.3-0.1c2.2,0.2,4.3,0.5,6.4,1.3
		c7.8,3,12.6,8.6,14.7,16.6C48,21.5,48.2,23.3,48.2,25z M24.9,10c-0.8,0-1.6,0-2.3,0.1c-2,0.2-3.9,0.7-5.7,1.7
		c-3.2,1.8-4.6,5.4-3.4,8.8c0.8,2.2,2.5,3.6,4.6,4.5c2,0.9,4.1,1.4,6.2,1.8c1.6,0.4,3.3,0.7,4.8,1.4c1.6,0.8,2.3,2.2,1.9,3.8
		c-0.3,1.3-1.3,2.1-2.5,2.7c-1.6,0.7-3.2,0.8-4.9,0.6c-2.2-0.2-3.7-1.3-4.7-3.3c-0.2-0.4-0.4-0.8-0.6-1.2c-0.8-1.8-2-2.4-3.7-2.1
		c-1.1,0.2-2.2,1.6-2.1,2.7c0.3,2.6,1.7,4.5,3.7,6c2.4,1.8,5.3,2.3,8.2,2.4c2,0.1,4.1-0.1,6.1-0.8c3.7-1.2,6.4-3.4,7-7.6
		c0.4-2.9-0.7-5.9-3.7-7.5c-2.4-1.3-5.1-1.9-7.8-2.6c-1.6-0.4-3.3-0.7-4.8-1.5c-0.7-0.3-1.3-0.8-1.6-1.5c-0.5-1.2-0.1-2.4,1.1-3.3
		c1.5-1,3.3-1,5-1c1.4,0.1,2.6,0.6,3.6,1.7c0.5,0.5,0.8,1.1,1.2,1.7c0.5,0.8,0.9,1.6,1.8,2c1,0.4,2,0.3,2.9-0.4c1-0.9,1.3-2,0.9-3.2
		c-0.6-2.4-2.3-3.8-4.4-4.8C29.5,10.3,27.3,10,24.9,10z"/>
</g>
</svg>
