<?xml version="1.0" encoding="utf-8"?>
<!-- Generator: Adobe Illustrator 18.0.0, SVG Export Plug-In . SVG Version: 6.00 Build 0)  -->
<!DOCTYPE svg PUBLIC "-//W3C//DTD SVG 1.1//EN" "http://www.w3.org/Graphics/SVG/1.1/DTD/svg11.dtd">
<svg version="1.1" id="Layer_1" xmlns="http://www.w3.org/2000/svg" xmlns:xlink="http://www.w3.org/1999/xlink" x="0px" y="0px"
	 viewBox="0 0 50 50" enable-background="new 0 0 50 50" xml:space="preserve">
<path opacity="0.4" fill="#5698C8" d="M41.3,14.6L5.7,26.1c-2.3,0.7-4.7-0.5-5.5-2.8l0,0c-0.7-2.3,0.5-4.7,2.8-5.5L38.6,6.3
	c2.3-0.7,4.7,0.5,5.5,2.8l0,0C44.9,11.4,43.6,13.9,41.3,14.6z"/>
<path opacity="0.6" fill="#5698C8" d="M47,32.3L11.4,43.7c-2.3,0.7-4.7-0.5-5.5-2.8l0,0c-0.7-2.3,0.5-4.7,2.8-5.5l35.6-11.5
	c2.3-0.7,4.7,0.5,5.5,2.8l0,0C50.5,29.1,49.3,31.5,47,32.3z"/>
<path opacity="0.8" fill="#5698C8" d="M35.4,41.3L23.9,5.7c-0.7-2.3,0.5-4.7,2.8-5.5l0,0c2.3-0.7,4.7,0.5,5.5,2.8l11.5,35.6
	c0.7,2.3-0.5,4.7-2.8,5.5l0,0C38.6,44.9,36.1,43.6,35.4,41.3z"/>
<path fill="#5698C8" d="M17.8,47L6.3,11.4C5.6,9.1,6.8,6.6,9.1,5.9l0,0c2.3-0.7,4.7,0.5,5.5,2.8l11.5,35.6c0.7,2.3-0.5,4.7-2.8,5.5
	l0,0C20.9,50.5,18.5,49.3,17.8,47z"/>
</svg>
